<mxfile host="app.diagrams.net" modified="2023-06-12T16:06:41.093Z" agent="Mozilla/5.0 (Windows NT 10.0; Win64; x64) AppleWebKit/537.36 (KHTML, like Gecko) Chrome/114.0.0.0 Safari/537.36" etag="M8aykp_7FoaobmAUQFct" version="21.3.8" type="device">
  <diagram name="Halaman-1" id="N1zLwEHJko81X42-4zVS">
    <mxGraphModel dx="880" dy="405" grid="0" gridSize="10" guides="1" tooltips="1" connect="1" arrows="1" fold="1" page="1" pageScale="1" pageWidth="1169" pageHeight="827" math="0" shadow="0">
      <root>
        <mxCell id="0" />
        <mxCell id="1" parent="0" />
        <mxCell id="cGeWv-AaJDgarq9IzG6w-9" value="&lt;font style=&quot;font-size: 16px;&quot;&gt;APLIKASI PENJUALAN MOTOR&lt;/font&gt;" style="text;strokeColor=none;fillColor=none;html=1;fontSize=24;fontStyle=1;verticalAlign=middle;align=center;rounded=0;shadow=0;" vertex="1" parent="1">
          <mxGeometry x="430" y="7" width="388" height="40" as="geometry" />
        </mxCell>
        <mxCell id="cGeWv-AaJDgarq9IzG6w-13" style="edgeStyle=orthogonalEdgeStyle;rounded=0;orthogonalLoop=1;jettySize=auto;html=1;exitX=0.5;exitY=1;exitDx=0;exitDy=0;" edge="1" parent="1" source="cGeWv-AaJDgarq9IzG6w-11">
          <mxGeometry relative="1" as="geometry">
            <mxPoint x="426.86" y="354" as="targetPoint" />
          </mxGeometry>
        </mxCell>
        <mxCell id="cGeWv-AaJDgarq9IzG6w-11" value="&lt;b&gt;&lt;font style=&quot;font-size: 14px;&quot;&gt;MULAI&lt;/font&gt;&lt;/b&gt;" style="ellipse;whiteSpace=wrap;html=1;" vertex="1" parent="1">
          <mxGeometry x="366.86" y="181" width="120" height="80" as="geometry" />
        </mxCell>
        <mxCell id="cGeWv-AaJDgarq9IzG6w-15" style="edgeStyle=orthogonalEdgeStyle;rounded=0;orthogonalLoop=1;jettySize=auto;html=1;exitX=0.5;exitY=1;exitDx=0;exitDy=0;" edge="1" parent="1" source="cGeWv-AaJDgarq9IzG6w-14">
          <mxGeometry relative="1" as="geometry">
            <mxPoint x="426.86" y="504" as="targetPoint" />
          </mxGeometry>
        </mxCell>
        <mxCell id="cGeWv-AaJDgarq9IzG6w-14" value="&lt;b&gt;MASUKAN NAMA&lt;br&gt;&amp;nbsp;PEMBELI&lt;/b&gt;" style="shape=parallelogram;perimeter=parallelogramPerimeter;whiteSpace=wrap;html=1;fixedSize=1;gradientColor=none;strokeWidth=1;" vertex="1" parent="1">
          <mxGeometry x="328.86" y="351" width="195" height="93" as="geometry" />
        </mxCell>
        <mxCell id="cGeWv-AaJDgarq9IzG6w-20" style="edgeStyle=orthogonalEdgeStyle;rounded=0;orthogonalLoop=1;jettySize=auto;html=1;exitX=0.5;exitY=1;exitDx=0;exitDy=0;entryX=0.5;entryY=0;entryDx=0;entryDy=0;" edge="1" parent="1" source="cGeWv-AaJDgarq9IzG6w-18" target="cGeWv-AaJDgarq9IzG6w-19">
          <mxGeometry relative="1" as="geometry" />
        </mxCell>
        <mxCell id="cGeWv-AaJDgarq9IzG6w-18" value="&lt;b&gt;PILIH MERK&lt;br&gt;&amp;nbsp;MOTOR&lt;/b&gt;" style="shape=parallelogram;perimeter=parallelogramPerimeter;html=1;fixedSize=1;gradientColor=none;rounded=1;shadow=0;labelBorderColor=none;labelBackgroundColor=none;fontColor=default;whiteSpace=wrap;strokeWidth=2;" vertex="1" parent="1">
          <mxGeometry x="353.86" y="501" width="145" height="70" as="geometry" />
        </mxCell>
        <mxCell id="cGeWv-AaJDgarq9IzG6w-22" style="edgeStyle=orthogonalEdgeStyle;rounded=0;orthogonalLoop=1;jettySize=auto;html=1;exitX=0.5;exitY=1;exitDx=0;exitDy=0;entryX=0.5;entryY=0;entryDx=0;entryDy=0;" edge="1" parent="1" source="cGeWv-AaJDgarq9IzG6w-19" target="cGeWv-AaJDgarq9IzG6w-21">
          <mxGeometry relative="1" as="geometry" />
        </mxCell>
        <mxCell id="cGeWv-AaJDgarq9IzG6w-19" value="&lt;b&gt;PILIH JENIS&lt;br&gt;&amp;nbsp;MOTOR&lt;/b&gt;" style="shape=parallelogram;perimeter=parallelogramPerimeter;html=1;fixedSize=1;gradientColor=none;rounded=1;shadow=0;labelBorderColor=none;labelBackgroundColor=none;fontColor=default;whiteSpace=wrap;strokeWidth=2;" vertex="1" parent="1">
          <mxGeometry x="353.86" y="644" width="145" height="70" as="geometry" />
        </mxCell>
        <mxCell id="cGeWv-AaJDgarq9IzG6w-24" style="edgeStyle=orthogonalEdgeStyle;rounded=0;orthogonalLoop=1;jettySize=auto;html=1;entryX=0.01;entryY=0.597;entryDx=0;entryDy=0;entryPerimeter=0;exitX=1;exitY=0.5;exitDx=0;exitDy=0;" edge="1" parent="1" source="cGeWv-AaJDgarq9IzG6w-21">
          <mxGeometry relative="1" as="geometry">
            <mxPoint x="496.86" y="822" as="sourcePoint" />
            <mxPoint x="587.37" y="809.3119999999999" as="targetPoint" />
          </mxGeometry>
        </mxCell>
        <mxCell id="cGeWv-AaJDgarq9IzG6w-21" value="&lt;b&gt;PILIH SISTEM&lt;br&gt;PEMBAYARAN&lt;br&gt;&lt;/b&gt;" style="shape=parallelogram;perimeter=parallelogramPerimeter;html=1;fixedSize=1;gradientColor=none;rounded=1;shadow=0;labelBorderColor=none;labelBackgroundColor=none;fontColor=default;whiteSpace=wrap;strokeWidth=2;" vertex="1" parent="1">
          <mxGeometry x="353.86" y="774" width="145" height="70" as="geometry" />
        </mxCell>
        <mxCell id="cGeWv-AaJDgarq9IzG6w-30" style="edgeStyle=orthogonalEdgeStyle;rounded=0;orthogonalLoop=1;jettySize=auto;html=1;exitX=1;exitY=0.462;exitDx=0;exitDy=0;exitPerimeter=0;entryX=0.5;entryY=1;entryDx=0;entryDy=0;" edge="1" parent="1" source="cGeWv-AaJDgarq9IzG6w-31" target="cGeWv-AaJDgarq9IzG6w-29">
          <mxGeometry relative="1" as="geometry">
            <mxPoint x="736.86" y="800" as="sourcePoint" />
            <mxPoint x="813.86" y="840" as="targetPoint" />
            <Array as="points">
              <mxPoint x="814" y="806" />
              <mxPoint x="814" y="721" />
              <mxPoint x="814" y="721" />
            </Array>
          </mxGeometry>
        </mxCell>
        <mxCell id="cGeWv-AaJDgarq9IzG6w-38" style="edgeStyle=orthogonalEdgeStyle;rounded=0;orthogonalLoop=1;jettySize=auto;html=1;exitX=0.49;exitY=0.142;exitDx=0;exitDy=0;exitPerimeter=0;" edge="1" parent="1" source="cGeWv-AaJDgarq9IzG6w-29" target="cGeWv-AaJDgarq9IzG6w-39">
          <mxGeometry relative="1" as="geometry">
            <mxPoint x="813.86" y="469" as="targetPoint" />
            <Array as="points">
              <mxPoint x="812.86" y="527" />
              <mxPoint x="812.86" y="469" />
            </Array>
          </mxGeometry>
        </mxCell>
        <mxCell id="cGeWv-AaJDgarq9IzG6w-29" value="&lt;b&gt;&lt;br&gt;KLIK&lt;br&gt;SELESAI&lt;/b&gt;" style="shape=manualInput;whiteSpace=wrap;html=1;strokeWidth=2;rounded=1;" vertex="1" parent="1">
          <mxGeometry x="744.86" y="585" width="139" height="94" as="geometry" />
        </mxCell>
        <mxCell id="cGeWv-AaJDgarq9IzG6w-33" style="edgeStyle=orthogonalEdgeStyle;rounded=0;orthogonalLoop=1;jettySize=auto;html=1;exitX=0.5;exitY=1;exitDx=0;exitDy=0;entryX=0.5;entryY=0;entryDx=0;entryDy=0;" edge="1" parent="1" source="cGeWv-AaJDgarq9IzG6w-31" target="cGeWv-AaJDgarq9IzG6w-32">
          <mxGeometry relative="1" as="geometry" />
        </mxCell>
        <mxCell id="cGeWv-AaJDgarq9IzG6w-31" value="&lt;b&gt;HITUNG JUMLAH&lt;/b&gt;" style="rounded=1;whiteSpace=wrap;html=1;strokeWidth=2;" vertex="1" parent="1">
          <mxGeometry x="589.86" y="769" width="140" height="80" as="geometry" />
        </mxCell>
        <mxCell id="cGeWv-AaJDgarq9IzG6w-34" style="edgeStyle=orthogonalEdgeStyle;rounded=0;orthogonalLoop=1;jettySize=auto;html=1;exitX=0;exitY=0.5;exitDx=0;exitDy=0;entryX=0;entryY=0.5;entryDx=0;entryDy=0;" edge="1" parent="1" source="cGeWv-AaJDgarq9IzG6w-32" target="cGeWv-AaJDgarq9IzG6w-14">
          <mxGeometry relative="1" as="geometry">
            <mxPoint x="305.86" y="379" as="targetPoint" />
            <Array as="points">
              <mxPoint x="257.86" y="978" />
              <mxPoint x="257.86" y="398" />
              <mxPoint x="277.86" y="398" />
            </Array>
          </mxGeometry>
        </mxCell>
        <mxCell id="cGeWv-AaJDgarq9IzG6w-32" value="&lt;b&gt;HITUNG LAGI&lt;/b&gt;" style="rounded=1;whiteSpace=wrap;html=1;strokeWidth=2;" vertex="1" parent="1">
          <mxGeometry x="591.36" y="941" width="137" height="74" as="geometry" />
        </mxCell>
        <mxCell id="cGeWv-AaJDgarq9IzG6w-36" value="&lt;b&gt;Benar&lt;/b&gt;" style="text;html=1;strokeColor=none;fillColor=none;align=center;verticalAlign=middle;whiteSpace=wrap;rounded=0;" vertex="1" parent="1">
          <mxGeometry x="722.86" y="784" width="60" height="30" as="geometry" />
        </mxCell>
        <mxCell id="cGeWv-AaJDgarq9IzG6w-37" value="&lt;b&gt;Salah&lt;/b&gt;" style="text;html=1;strokeColor=none;fillColor=none;align=center;verticalAlign=middle;whiteSpace=wrap;rounded=0;rotation=90;" vertex="1" parent="1">
          <mxGeometry x="637.86" y="855" width="60" height="30" as="geometry" />
        </mxCell>
        <mxCell id="cGeWv-AaJDgarq9IzG6w-39" value="&lt;b&gt;SELESAI&lt;/b&gt;" style="ellipse;whiteSpace=wrap;html=1;" vertex="1" parent="1">
          <mxGeometry x="753.8599999999999" y="416" width="120" height="80" as="geometry" />
        </mxCell>
      </root>
    </mxGraphModel>
  </diagram>
</mxfile>
